<?xml version="1.0"?><svg width="100%" height="100%" viewBox="0 0 515 515" version="1.1" xmlns="http://www.w3.org/2000/svg" xmlns:xlink="http://www.w3.org/1999/xlink" xml:space="preserve" xmlns:serif="http://www.serif.com/" style="fill-rule:evenodd;clip-rule:evenodd;stroke-linejoin:round;stroke-miterlimit:2;"><g><path d="M193.32,90.542c25.083,0 45.293,-20.423 45.293,-45.293c0,-25.083 -20.21,-45.249 -45.293,-45.249c-24.996,0 -45.293,20.171 -45.293,45.249c-0.005,24.864 20.292,45.293 45.293,45.293Z" style="fill:#fff;fill-rule:nonzero;"></path><path d="M413.505,427.424c7.22,11.748 23.803,16.578 36.323,9.057c12.432,-7.433 16.195,-23.076 9.101,-36.148l-77.169,-133.275c-4.83,-8.035 -13.247,-12.563 -21.922,-12.82l-113.235,0l-1.067,-34.184l82.256,0c11.24,-0.684 20.423,-9.232 20.423,-20.724c0,-11.322 -8.932,-20.128 -20.423,-20.554l-84.651,0l-2.948,-38.844c-1.581,-23.759 -22.048,-42.476 -46.108,-41.147c-24.142,1.367 -42.432,22.179 -41.234,46.234l7.865,137.377c2.007,24.055 22.179,41.278 46.064,41.147l146.779,0l59.946,103.882Z" style="fill:#fff;fill-rule:nonzero;"></path><path d="M222.418,479.078c-74.265,0 -134.473,-60.077 -134.473,-134.473c-0,-40.72 18.416,-77.043 47.131,-101.743l-2.396,-42.049c-48.071,30.038 -80.374,82.939 -80.374,143.787c0,93.878 76.102,170.15 170.112,170.15c69.178,0 128.363,-41.661 154.94,-100.972l-23.929,-41.404c-12.82,60.766 -66.361,106.704 -131.011,106.704Z" style="fill:#fff;fill-rule:nonzero;"></path></g></svg>